<!-- icon666.com - MILLIONS OF FREE VECTOR ICONS --><svg clip-rule="evenodd" fill-rule="evenodd" stroke-linejoin="round" stroke-miterlimit="2" viewBox="0 0 356 356" xmlns="http://www.w3.org/2000/svg"><g id="Exp-2.-O"><g><path d="m279.85 141.256c4.08-4.081 8.646-8.646 12.409-12.409 6.509-6.509 6.509-17.062 0-23.571-4.271-4.27-9.537-9.536-13.807-13.807-6.509-6.508-17.062-6.508-23.57 0-3.733 3.732-8.254 8.254-12.309 12.308-2.168 2.169-2.168 5.689 0 7.857s5.689 2.168 7.857 0c4.055-4.054 8.576-8.576 12.308-12.308 2.17-2.17 5.687-2.17 7.857 0 4.271 4.271 9.537 9.537 13.807 13.807 2.17 2.17 2.17 5.687 0 7.857-3.763 3.763-8.328 8.328-12.409 12.409-2.168 2.168-2.168 5.688 0 7.857 2.168 2.168 5.689 2.168 7.857 0z"></path><path d="m166.667 72.222v16.667c0 3.066-2.49 5.555-5.556 5.555s-5.555-2.489-5.555-5.555v-22.222c0-3.069 2.487-5.556 5.555-5.556h33.333c3.069 0 5.556 2.487 5.556 5.556v22.222c0 3.066-2.489 5.555-5.556 5.555-3.066 0-5.555-2.489-5.555-5.555v-16.667z"></path><path d="m177.778 83.333c-67.457 0-122.222 54.766-122.222 122.223 0 67.456 54.765 122.222 122.222 122.222 67.456 0 122.222-54.766 122.222-122.222 0-67.457-54.766-122.223-122.222-122.223zm0 11.111c61.324 0 111.111 49.788 111.111 111.112 0 61.323-49.787 111.111-111.111 111.111s-111.111-49.788-111.111-111.111c0-61.324 49.787-111.112 111.111-111.112z"></path><path d="m177.758 105.556c-55.181 0-99.98 44.799-99.98 99.98 0 55.18 44.799 99.98 99.98 99.98 55.18 0 99.98-44.8 99.98-99.98 0-55.181-44.8-99.98-99.98-99.98zm0 11.111c49.048 0 88.869 39.821 88.869 88.869s-39.821 88.869-88.869 88.869-88.869-39.821-88.869-88.869 39.821-88.869 88.869-88.869z"></path><path d="m272.182 199.98h-23.606c-3.066 0-5.555 2.489-5.555 5.556 0 3.066 2.489 5.555 5.555 5.555h23.606c3.067 0 5.556-2.489 5.556-5.555 0-3.067-2.489-5.556-5.556-5.556z"></path><path d="m183.313 297.814v-23.606c0-3.066-2.489-5.556-5.555-5.556s-5.556 2.49-5.556 5.556v23.606c0 3.066 2.49 5.556 5.556 5.556s5.555-2.49 5.555-5.556z"></path><path d="m106.939 199.98h-23.606c-3.066 0-5.555 2.489-5.555 5.556 0 3.066 2.489 5.555 5.555 5.555h23.606c3.067 0 5.556-2.489 5.556-5.555 0-3.067-2.489-5.556-5.556-5.556z"></path><path d="m183.313 136.863v-23.606c0-3.066-2.489-5.555-5.555-5.555s-5.556 2.489-5.556 5.555v23.606c0 3.066 2.49 5.556 5.556 5.556s5.555-2.49 5.555-5.556z"></path><path d="m178.134 220.06 11.715 26.36c1.246 2.802 4.531 4.066 7.333 2.821 2.802-1.246 4.066-4.532 2.821-7.333l-11.716-26.361c-1.245-2.802-4.531-4.065-7.333-2.82s-4.066 4.531-2.82 7.333z"></path><path d="m192.643 199.427 40.373-37.008c2.26-2.072 2.413-5.589.341-7.85-2.071-2.26-5.589-2.413-7.849-.341l-40.373 37.009c-2.26 2.072-2.413 5.589-.341 7.849 2.071 2.26 5.589 2.413 7.849.341z"></path><path d="m177.758 187.104c-10.173 0-18.432 8.259-18.432 18.432 0 10.172 8.259 18.431 18.432 18.431s18.431-8.259 18.431-18.431c0-10.173-8.258-18.432-18.431-18.432zm0 11.111c4.04 0 7.32 3.28 7.32 7.321 0 4.04-3.28 7.32-7.32 7.32s-7.321-3.28-7.321-7.32c0-4.041 3.281-7.321 7.321-7.321z"></path><path d="m216.667 44.444c0-9.204-7.462-16.666-16.667-16.666-12.331 0-32.114 0-44.445 0-9.204 0-16.666 7.462-16.666 16.666v11.112c0 9.204 7.462 16.666 16.666 16.666h44.445c9.205 0 16.667-7.462 16.667-16.666zm-11.111 0c0-3.068-2.488-5.555-5.556-5.555-12.331 0-32.114 0-44.444 0-3.069 0-5.556 2.487-5.556 5.555v11.112c0 3.068 2.487 5.555 5.555 5.555h44.445c3.068 0 5.556-2.487 5.556-5.555z"></path></g></g></svg>